<?xml version="1.0" encoding="UTF-8" standalone="no"?>
<svg
   height="16px"
   viewBox="0 0 16 16"
   width="16px"
   version="1.1"
   id="svg2"
   sodipodi:docname="view-restore-symbolic.svg"
   inkscape:version="1.4 (e7c3feb100, 2024-10-09)"
   xmlns:inkscape="http://www.inkscape.org/namespaces/inkscape"
   xmlns:sodipodi="http://sodipodi.sourceforge.net/DTD/sodipodi-0.dtd"
   xmlns="http://www.w3.org/2000/svg"
   xmlns:svg="http://www.w3.org/2000/svg">
  <defs
     id="defs2" />
  <sodipodi:namedview
     id="namedview2"
     pagecolor="#ffffff"
     bordercolor="#000000"
     borderopacity="0.25"
     inkscape:showpageshadow="2"
     inkscape:pageopacity="0.0"
     inkscape:pagecheckerboard="0"
     inkscape:deskcolor="#d1d1d1"
     inkscape:zoom="34.375"
     inkscape:cx="8.0145455"
     inkscape:cy="8"
     inkscape:window-width="1290"
     inkscape:window-height="761"
     inkscape:window-x="0"
     inkscape:window-y="0"
     inkscape:window-maximized="1"
     inkscape:current-layer="svg2" />
  <g
     fill="#2e3436"
     id="g2"
     transform="matrix(0.59163677,0.70773854,-0.59269537,0.70647446,8.0375596,-3.313704)">
    <path
       d="M 2,8 C 1.449219,8 1,8.449219 1,9 c 0,0.550781 0.449219,1 1,1 h 2.585938 l -3.292969,3.292969 c -0.390625,0.390625 -0.390625,1.023437 0,1.414062 0.390625,0.390625 1.023437,0.390625 1.414062,0 L 6,11.414062 V 14 c 0,0.550781 0.449219,1 1,1 0.550781,0 1,-0.449219 1,-1 V 8 Z m 0,0"
       id="path1" />
    <path
       d="M 14,8 C 14.550781,8 15,7.550781 15,7 15,6.449219 14.550781,6 14,6 h -2.585938 l 3.292969,-3.292969 c 0.390625,-0.390625 0.390625,-1.023437 0,-1.414062 -0.390625,-0.390625 -1.023437,-0.390625 -1.414062,0 L 10,4.585938 V 2 C 10,1.449219 9.550781,1 9,1 8.449219,1 8,1.449219 8,2 v 6 z m 0,0"
       id="path2" />
  </g>
</svg>
